<?xml version="1.0" encoding="UTF-8"?>
<svg id="Layer_2" data-name="Layer 2" xmlns="http://www.w3.org/2000/svg" viewBox="0 0 158.08 112.84">
  <defs>
    <style>
      .cls-1 {
        fill: #F1B263;
      }
    </style>
  </defs>
  <g id="Layer_1-2" data-name="Layer 1">
    <g>
      <path class="cls-1" d="m79.07,0C101.52,0,123.96,0,146.41,0c6.03,0,10.6,3.89,11.55,9.84.91,5.67-3.39,11.59-9.12,12.53-.72.12-1.46.18-2.19.18-45.07,0-90.14,0-135.21,0-5.85,0-10.61-4.19-11.35-9.97C-.63,7,3.13,1.64,8.76.3,9.66.08,10.62.01,11.55.01,34.06,0,56.56,0,79.07,0Z"/>
      <path class="cls-1" d="m79.02,45.14c22.51,0,45.01,0,67.52,0,5.8,0,10.34,3.82,11.35,9.54,1.04,5.89-3.2,11.88-9.1,12.84-.69.11-1.4.18-2.1.18-45.1,0-90.2,0-135.3,0-5.82,0-10.63-4.28-11.31-10.02-.66-5.6,3.04-10.88,8.64-12.23.9-.22,1.86-.3,2.79-.3,22.51-.02,45.01-.01,67.52-.01Z"/>
      <path class="cls-1" d="m78.97,112.84c-22.48,0-44.95,0-67.43,0-5.81,0-10.34-3.81-11.37-9.52-1.04-5.84,3.15-11.84,8.99-12.84.75-.13,1.52-.19,2.28-.19,45.07,0,90.14,0,135.21,0,5.96,0,11.03,4.64,11.35,10.35.35,6.25-3.94,11.46-10.02,12.17-.58.07-1.17.04-1.76.04-22.42,0-44.83,0-67.25,0Z"/>
    </g>
  </g>
</svg>