<svg
                                width="42"
                                height="42"
                                viewBox="0 0 42 42"
                                fill="none"
                                xmlns="http://www.w3.org/2000/svg"
                            >
                                <g clip-path="url(#clip0_29_564)">
                                    <path
                                        d="M2.98298e-05 22.6362V20.2585C2.98298e-05 19.9844 2.98298e-05 19.7124 2.98298e-05 19.4383C0.0765597 19.3554 0.153089 19.2747 0.229619 19.1918C0.182851 18.9878 0.072308 18.7732 0.10207 18.582C0.187103 18.0274 0.393308 17.4877 0.435825 16.9331C0.544242 15.5647 1.06932 14.3259 1.55826 13.0786C1.88139 12.252 2.29167 11.4531 2.71896 10.6711C3.68409 8.90324 4.93408 7.34572 6.35413 5.92631C6.67513 5.60545 7.09605 5.38872 7.44893 5.09549C7.83583 4.77463 8.17384 4.39216 8.57137 4.08618C10.5633 2.56053 12.7996 1.51722 15.2018 0.824518C15.7333 0.671528 16.2499 0.467542 16.8472 0.510039C17.2745 0.539787 17.7146 0.306052 18.1546 0.208309C18.5266 0.125439 18.9072 0.0701928 19.2813 0.00219727H22.6444C22.7018 0.0298205 22.7549 0.0701928 22.8144 0.0786923C23.7158 0.218933 24.6299 0.303928 25.5164 0.510039C26.4879 0.735274 27.4424 1.05188 28.3905 1.36636C29.9721 1.88695 31.39 2.73689 32.7867 3.62296C32.9355 3.71858 33.029 3.90132 33.1715 4.00968C33.3479 4.14143 33.5669 4.21792 33.7369 4.35391C34.0749 4.62802 34.3959 4.92337 34.7191 5.21873C35.3759 5.82219 36.0796 6.38528 36.6727 7.04824C37.3742 7.83231 37.9822 8.70138 38.6285 9.5322C38.6625 9.66819 38.3882 9.95292 38.8092 9.89767C38.975 10.1612 39.1684 10.4119 39.3002 10.6924C39.8019 11.7676 40.3504 12.8257 40.7522 13.937C41.1433 15.0165 41.4452 16.1426 41.6535 17.2709C41.813 18.14 42.0298 19.0133 41.9384 19.9249C41.8916 20.403 41.9958 20.896 41.9979 21.3825C42 21.8543 41.9618 22.3281 41.9405 22.7998C41.9086 22.9146 41.8661 23.0293 41.8448 23.1462C41.6131 24.3892 41.4409 25.6471 41.1391 26.8753C40.7798 28.3415 40.1463 29.712 39.4427 31.0464C39.3385 31.2462 39.1854 31.4183 39.0536 31.6053C39.0366 31.6116 39.0175 31.6201 39.0005 31.6265C39.0175 31.6371 39.0345 31.6478 39.0536 31.6584C38.486 32.4934 37.9312 33.337 37.3445 34.1572C37.0617 34.5524 36.7407 34.9264 36.3921 35.2664C35.8628 35.7849 35.2952 36.2651 34.7403 36.7559C34.2705 37.1724 33.8241 37.6207 33.316 37.982C32.7782 38.3666 32.1787 38.6683 31.6047 39.004C30.9946 39.361 30.3973 39.7435 29.7638 40.0558C29.3705 40.2492 29.0006 40.5892 28.4946 40.4574C28.4691 40.451 28.4309 40.4893 28.399 40.5105C28.2544 40.6104 28.1226 40.7592 27.9632 40.8038C26.8875 41.1034 25.8118 41.4115 24.7234 41.6558C23.4926 41.9342 22.2362 42.0468 20.9735 41.9852C19.8935 41.9321 18.8157 41.8407 17.7401 41.7323C17.4169 41.7005 17.1087 41.5305 16.7834 41.4667C16.4646 41.403 16.1244 41.4285 15.8077 41.3541C14.5322 41.0609 13.2971 40.6317 12.1428 40.0176C10.9991 39.4099 9.86388 38.7767 8.78183 38.067C8.05054 37.5889 7.38728 36.9918 6.74741 36.3904C6.07777 35.7615 5.43365 35.0964 4.84905 34.3888C4.49403 33.9575 4.14752 33.5091 3.8244 33.0523C3.30144 32.3171 2.85502 31.5288 2.37671 30.7617C2.37671 30.7277 2.37671 30.6937 2.37671 30.6618C2.37671 30.6363 2.3682 30.6108 2.35757 30.5874C2.33632 30.5662 2.31506 30.5449 2.2938 30.5237C2.04295 29.9882 1.7836 29.457 1.54338 28.9173C0.807845 27.262 0.393308 25.5218 0.161593 23.7326C0.114825 23.365 0.0489239 22.9996 -0.00634766 22.6341L2.98298e-05 22.6362ZM14.4174 10.2504C14.3983 10.2228 14.3791 10.193 14.36 10.1654C14.292 9.79356 14.2962 9.38558 14.1304 9.06473C13.9922 8.797 13.6649 8.62063 13.4034 8.42515C12.8889 8.04267 12.2958 7.81956 11.6645 7.89393C11.048 7.96618 10.4081 7.9938 9.95954 8.61213C9.62366 9.07748 9.30266 9.51732 9.20699 10.091C9.20699 10.1442 9.20912 10.1973 9.21125 10.2483C9.21125 10.414 9.21125 10.5819 9.21125 10.7476C9.23038 10.8029 9.24951 10.8602 9.26864 10.9155C9.32604 11.1301 9.38131 11.3447 9.43871 11.5572C9.45997 11.5869 9.48123 11.6167 9.50248 11.6464C9.56201 11.7591 9.62366 11.8738 9.68318 11.9864C9.70656 12.0374 9.72995 12.0863 9.75546 12.1373C10.1827 12.6727 10.7355 12.9915 11.4094 13.1062C11.4625 13.1062 11.5135 13.1041 11.5667 13.102H12.0662L12.1045 13.1126L12.1428 13.1062C12.4978 12.9957 12.8549 12.8874 13.2099 12.7769C13.2609 12.728 13.312 12.6791 13.363 12.6302C13.8711 12.1288 14.326 11.5976 14.3643 10.8326C14.3834 10.805 14.4025 10.7774 14.4217 10.7476C14.4217 10.5819 14.4217 10.4161 14.4217 10.2483L14.4174 10.2504ZM27.5508 22.1432C27.5571 22.3069 27.5678 22.4705 27.5678 22.6341C27.5678 25.8575 27.5678 29.0809 27.5678 32.3022V32.7782H32.8186C32.8186 31.1527 32.8207 29.5569 32.8186 27.959C32.8143 26.1571 32.8037 24.3552 32.7973 22.5533C32.7782 22.5257 32.759 22.496 32.7399 22.4683C32.7335 21.9499 32.725 21.4314 32.7187 20.913C32.6995 20.8577 32.6783 20.8025 32.6591 20.7472C32.6506 20.5284 32.6443 20.3095 32.6358 20.0928C32.6166 20.0375 32.5954 19.9844 32.5762 19.9291C32.4976 19.4702 32.4402 19.0048 32.336 18.5501C32.0958 17.5004 31.6961 16.5209 30.8883 15.7708C29.9359 14.8868 28.7795 14.5235 27.4955 14.515C27.4657 14.4959 27.4381 14.4767 27.4083 14.4576C27.0512 14.4576 26.6941 14.4576 26.3369 14.4576C26.2264 14.4767 26.118 14.4959 26.0074 14.5171L25.4334 14.5384C25.3782 14.5575 25.3229 14.5787 25.2676 14.5979C23.8667 14.7211 22.8123 15.3182 22.3042 16.7248V14.4682H17.0917V32.7782H22.3212C22.3212 31.3736 22.3212 29.9946 22.3212 28.6177C22.3255 26.4588 22.3319 24.3 22.3382 22.1411C22.3382 22.0349 22.3382 21.9265 22.3404 21.8203C22.3978 21.1127 22.7485 20.5772 23.3034 20.1586L23.4649 20.012C24.1239 19.7145 24.8191 19.7103 25.5227 19.7464C25.5759 19.774 25.6311 19.8016 25.6843 19.8293C26.2753 19.8505 26.6686 20.2372 27.081 20.5878C27.1086 20.6367 27.1362 20.6877 27.1617 20.7366L27.4912 21.9733C27.5125 22.0285 27.5316 22.0859 27.5529 22.1411L27.5508 22.1432ZM9.20699 32.7782H14.4089V14.4598H9.20699V32.7782Z"
                                        fill="#027BB6"
                                    />
                                    <path
                                        d="M22.334 22.1411C22.334 22.0327 22.334 21.9265 22.3361 21.8181C22.3361 21.9265 22.3361 22.0327 22.334 22.1411Z"
                                        fill="#057CB6"
                                    />
                                    <path
                                        d="M9.68317 11.9841C9.70655 12.0351 9.72993 12.084 9.75544 12.135C9.73206 12.084 9.70868 12.0351 9.68317 11.9841Z"
                                        fill="#137FB8"
                                    />
                                </g>
                                <defs>
                                    <clip-path id="clip0_29_564">
                                        <rect
                                            width="42"
                                            height="42"
                                            fill="white"
                                        />
                                    </clip-path>
                                </defs>
                            </svg>