<?xml version="1.0" encoding="UTF-8"?>
<svg id="Layer_2" data-name="Layer 2" xmlns="http://www.w3.org/2000/svg" viewBox="0 0 146.18 146.18">
  <defs>
    <style>
      .cls-1 {
        fill: #F1B263;
        fill-rule: evenodd;
      }
    </style>
  </defs>
  <g id="Layer_1-2" data-name="Layer 1">
    <path class="cls-1" d="m3.06,3.06C7.14-1.02,13.75-1.02,17.82,3.06l55.27,55.27L128.36,3.06c4.08-4.08,10.69-4.08,14.77,0,4.08,4.08,4.08,10.69,0,14.77l-55.27,55.27,55.27,55.27c4.08,4.08,4.08,10.69,0,14.77-4.08,4.08-10.69,4.08-14.77,0l-55.27-55.27-55.27,55.27c-4.08,4.08-10.69,4.08-14.77,0-4.08-4.08-4.08-10.69,0-14.77l55.27-55.27L3.06,17.82C-1.02,13.75-1.02,7.14,3.06,3.06Z"/>
  </g>
</svg>