 <svg
                                width="41"
                                height="41"
                                viewBox="0 0 41 41"
                                fill="none"
                                xmlns="http://www.w3.org/2000/svg"
                            >
                                <g clip-path="url(#clip0_130_10)">
                                    <path
                                        d="M41 19.285V21.6896C40.9101 22.3882 40.841 23.089 40.7258 23.7853C40.0045 28.0826 38.1289 31.8036 35.0642 34.8952C31.8681 38.1205 28.0154 40.0894 23.5128 40.7626C22.9091 40.8525 22.3031 40.9239 21.6971 41.0023H19.2937C19.1508 40.9747 19.0103 40.9424 18.8674 40.9216C17.9964 40.7971 17.1162 40.728 16.259 40.5435C11.2909 39.4669 7.23311 36.9079 4.16842 32.8572C0.767309 28.3639 -0.529999 23.2712 0.193544 17.6966C0.730441 13.5745 2.40104 9.92725 5.20304 6.85871C9.8669 1.75215 15.6944 -0.509491 22.575 0.0945354C26.6098 0.449574 30.2229 1.97117 33.3613 4.53943C37.4652 7.89846 39.9446 12.2096 40.758 17.4637C40.8525 18.0678 40.9193 18.6764 41 19.2827V19.285ZM24.5014 28.599C25.5821 29.6618 25.8332 30.1575 25.9531 31.6307C26.0222 32.4814 26.0429 33.3367 26.0959 34.1897C26.1351 34.8214 26.1881 35.4531 26.2365 36.0986C33.071 33.6848 38.5874 26.1576 36.8385 17.2148C35.2577 9.13418 27.7389 2.99939 18.7937 3.90082C10.5397 4.73078 4.1039 11.5411 3.84352 19.926C3.5624 28.9725 10.1342 35.0842 16.1161 36.5136V32.7327C15.9917 32.7511 15.8765 32.7673 15.7612 32.788C14.7796 32.9563 13.7957 33.0001 12.8256 32.7327C11.6804 32.4192 10.8301 31.746 10.3669 30.6255C9.90146 29.4959 9.31157 28.4653 8.18478 27.8567C8.09261 27.8083 8.00274 27.7322 7.94744 27.6446C7.8737 27.5293 7.76309 27.3679 7.79766 27.2688C7.82992 27.172 8.01657 27.0936 8.14791 27.0705C8.8968 26.9437 9.57195 27.1743 10.1088 27.6676C10.5743 28.0941 10.9799 28.6013 11.3578 29.1108C11.9431 29.897 12.6574 30.4457 13.6505 30.5656C14.51 30.667 15.3211 30.4595 16.1046 30.1368C16.2106 30.093 16.2935 29.9293 16.3373 29.8025C16.5147 29.2791 16.8396 28.901 17.3535 28.6843C17.418 28.6567 17.4733 28.6152 17.5424 28.5737C16.6553 28.38 15.7889 28.2348 14.9478 27.995C11.4684 27.0037 9.03045 24.9195 8.05343 21.3254C7.51423 19.3404 7.59949 17.4568 8.97054 15.8015C9.42909 15.2482 9.9775 14.7733 10.466 14.2453C10.5582 14.1462 10.6296 13.941 10.5904 13.8211C10.2079 12.6177 10.1595 11.4004 10.4891 10.1901C10.8716 8.78375 10.6826 8.76761 12.3002 9.08807C13.6367 9.35319 14.8142 10.0287 15.9502 10.7664C16.0769 10.8494 16.2659 10.9025 16.411 10.8794C17.4756 10.7157 18.531 10.4552 19.6002 10.3699C21.4298 10.2223 23.2501 10.3515 25.0313 10.8656C25.1696 10.9048 25.3701 10.8633 25.4945 10.7826C26.5522 10.0979 27.6651 9.52841 28.8703 9.15723C29.4187 8.98894 29.974 8.86444 30.6561 9.01429C30.693 10.5405 30.739 12.0736 30.7552 13.6044C30.7598 13.9041 30.8174 14.1255 31.0363 14.3468C34.9259 18.3029 33.8959 25.8233 27.785 27.8013C26.7158 28.1472 25.5959 28.3362 24.506 28.5944L24.5014 28.599Z"
                                        fill="#FAFBFC"
                                    />
                                </g>
                                <defs>
                                    <clip-path id="clip0_130_10">
                                        <rect
                                            width="41"
                                            height="41"
                                            fill="white"
                                        />
                                    </clip-path>
                                </defs>
                            </svg>